<?xml version="1.0" encoding="utf-8"?>
<!-- Generator: Adobe Illustrator 11.0, SVG Export Plug-In  -->
<!DOCTYPE svg PUBLIC "-//W3C//DTD SVG 1.0//EN"    "http://www.w3.org/TR/2001/REC-SVG-20010904/DTD/svg10.dtd" [
	<!ENTITY ns_flows "http://ns.adobe.com/Flows/1.0/">
	<!ENTITY ns_svg "http://www.w3.org/2000/svg">
	<!ENTITY ns_xlink "http://www.w3.org/1999/xlink">
]>
<svg  xmlns="&ns_svg;" xmlns:xlink="&ns_xlink;" xmlns:a="http://ns.adobe.com/AdobeSVGViewerExtensions/3.0/"
	 width="409" height="586" viewBox="-0.888 -0.12 409 586" xml:space="preserve">
	<defs>
	</defs>
	<g>
		<path fill="#0B2775" d="M99.936,135.144l-0.072,0.072l-0.072,0.072c-23.256,26.28-56.448,48.456-95.976,64.08L0,200.88
			l3.024,2.808c24.264,23.04,37.656,53.712,37.656,86.328v129.528v0.071c3.384,49.969,40.536,94.896,99.36,120.24
			c25.056,10.512,46.368,25.344,61.632,42.984l2.016,2.305l2.016-2.305c15.264-17.641,36.576-32.473,61.561-42.984
			c58.896-25.344,96.048-70.271,99.432-120.24v-0.071V290.016c0-32.616,13.393-63.288,37.656-86.328l3.023-2.808l-3.815-1.512
			c-39.528-15.624-72.72-37.8-95.976-64.08l-0.072-0.072l-0.072-0.072C279.215,108,242.352,92.88,203.688,92.664
			C165.024,92.88,128.16,108,99.936,135.144z"/>
		<path fill="#FFE611" d="M303.768,138.96c-27.217-26.208-62.784-40.824-100.08-41.04c-37.296,0.216-72.864,14.832-100.08,41.04
			c-23.04,25.992-55.584,47.952-94.176,63.72c23.544,23.688,36.504,54.504,36.504,87.336c0,0,0,129.024,0,129.313
			c3.24,47.951,39.24,91.152,96.192,115.703c24.768,10.297,45.936,24.912,61.56,42.265c15.624-17.353,36.792-31.968,61.56-42.265
			C322.2,510.48,358.2,467.279,361.44,419.328c0-0.288,0-129.313,0-129.313c0-32.832,12.96-63.648,36.504-87.336
			C359.352,186.912,326.807,164.952,303.768,138.96z"/>
		<path fill="#0B2775" d="M301.463,393.768l-36-37.367h-26.711v26.711l37.367,36.072v6.625h-28.296v92.735
			c10.296-4.824,20.664-9.36,30.601-15.12c16.631-10.225,30.6-21.888,42.479-37.512c10.296-14.688,16.704-29.592,18.288-47.592
			v-52.776h-31.104v28.224H301.463z"/>
		<path fill="#0B2775" d="M105.912,248.976l36,37.368h26.712v-26.712l-37.296-36.072v-6.624h28.224v-88.128
			c-14.616,5.832-28.008,14.4-40.032,25.632c-20.952,23.256-47.088,42.408-74.88,56.592c13.176,20.016,20.664,42.552,22.896,66.24
			h31.752v-28.296H105.912z"/>
		<path fill="#0B2775" d="M276.12,223.56l-37.367,36.072v26.712h26.711l36-37.368h6.625v28.296h31.752
			c2.231-23.616,9.72-46.224,22.896-66.24c-21.601-11.016-41.688-24.912-59.688-41.184c-7.92-7.416-14.976-15.624-23.399-22.536
			c-9.864-7.704-20.521-13.968-31.824-18.504v88.128h28.296V223.56z"/>
		<path fill="#0B2775" d="M131.328,419.184l37.296-36.072V356.4h-26.712l-36,37.367h-6.624v-28.224H68.112l0.072,52.776
			c0.864,9.791,3.096,18.432,6.84,27.576c14.184,31.392,40.752,52.127,71.28,66.672l7.056,3.096
			c2.088,0.863,4.104,1.872,6.192,2.808v-92.663h-28.224V419.184z"/>
		<polygon fill="#008837" points="123.48,51.696 114.336,23.328 105.12,51.696 75.312,51.696 99.36,69.192 90.216,97.56 
			114.336,80.064 138.384,97.56 129.24,69.192 153.288,51.696 "/>
		<polygon fill="#008837" points="332.064,51.696 302.256,51.696 293.04,23.328 283.896,51.696 254.088,51.696 278.208,69.192 
			268.992,97.56 293.04,80.064 317.16,97.56 308.016,69.192 "/>
		<polygon fill="#008837" points="404.496,109.296 374.688,109.296 365.471,80.928 356.256,109.296 326.448,109.296 
			350.568,126.792 341.352,155.16 365.471,137.592 389.592,155.16 380.375,126.792 "/>
		<polygon fill="#008837" points="51.12,109.296 41.904,80.928 32.688,109.296 2.88,109.296 27,126.792 17.784,155.16 
			41.904,137.592 66.024,155.16 56.808,126.792 80.928,109.296 "/>
		<polygon fill="#008837" points="212.833,28.368 203.688,0 194.544,28.368 164.736,28.368 188.784,45.864 179.64,74.232 
			203.688,56.664 227.736,74.232 218.592,45.864 242.639,28.368 "/>
		<path fill="#008837" d="M180.216,529.561c8.208,5.039,16.128,10.584,23.472,16.848c7.271-6.264,15.191-11.809,23.472-16.848
			V425.809h-46.944V529.561z"/>
		<path fill="#008837" d="M227.16,122.616c-8.567-1.728-17.424-2.592-26.352-2.448c-7.056,0.36-13.896,1.152-20.592,2.52v94.248
			h46.944V122.616z"/>
		<rect x="68.112" y="297.936" fill="#008837" width="31.176" height="46.873"/> 
		<rect x="308.088" y="297.936" fill="#008837" width="31.104" height="46.873"/> 
		<polygon fill="#FFFFFF" points="301.463,248.976 265.463,286.344 238.752,286.344 238.752,259.632 276.12,223.56 276.12,216.936 
			131.328,216.936 131.328,223.56 168.624,259.632 168.624,286.344 141.912,286.344 105.912,248.976 99.288,248.976 99.288,393.768 
			105.912,393.768 141.912,356.4 168.624,356.4 168.624,383.111 131.328,419.184 131.328,425.809 276.12,425.809 276.12,419.184 
			238.752,383.111 238.752,356.4 265.463,356.4 301.463,393.768 308.088,393.768 308.088,248.976 "/>
		<path fill="#0B2775" d="M156.384,303.408c3.816,0,6.48,1.152,8.424,3.456c1.152,1.152,2.304,3.096,3.024,5.76h10.728
			c-0.36-3.456-1.512-6.48-3.816-9.576c-3.816-5.76-10.368-8.784-19.152-8.784c-6.48,0-11.88,2.304-16.056,6.48
			c-4.608,4.968-7.272,11.88-7.272,20.592c0,8.424,2.304,14.904,6.48,19.943c4.248,4.969,10.368,7.272,17.64,7.272
			c12.24,0,20.232-8.063,22.176-19.151h-10.728c-0.72,2.664-1.872,4.607-3.024,6.119c-1.944,2.305-4.608,3.457-8.424,3.457
			c-7.704,0-13.032-5.761-13.032-17.209C143.352,310.32,148.32,303.408,156.384,303.408z"/>
		<polygon fill="#0B2775" points="275.112,304.56 275.112,295.416 238.391,295.416 238.391,346.968 249.12,346.968 249.12,325.152 
			272.088,325.152 272.088,316.44 249.12,316.44 249.12,304.56 "/>
		<path fill="#0B2775" d="M221.256,319.104c1.943-0.72,3.023-1.872,4.176-2.664c1.584-1.872,2.304-4.608,2.304-7.632
			c0-3.096-0.72-5.76-2.304-8.064c-2.664-3.456-7.272-5.328-13.393-5.328h-25.128v51.552h23.257c5.327,0,9.936-0.72,13.392-3.456
			c1.512-1.152,2.663-2.232,3.456-3.816c1.512-2.664,2.304-5.328,2.304-8.424C229.32,325.584,226.584,320.977,221.256,319.104z
			 M197.208,304.2h11.448c2.231,0,4.177,0.36,6.12,0.792c1.872,0.72,2.664,2.304,2.664,4.968c0,4.176-3.096,5.688-7.633,5.688
			h-12.599V304.2z M215.135,337.031c-1.151,0.793-3.096,0.793-5.328,0.793h-12.599V324h12.599c2.232,0,4.177,0.432,5.328,1.152
			c2.305,0.791,3.457,2.735,3.457,5.399C218.592,334.008,217.44,335.88,215.135,337.031z"/>
	</g>
</svg>
