<?xml version="1.0" encoding="utf-8"?>
<!-- Generator: Adobe Illustrator 11.0, SVG Export Plug-In  -->
<!DOCTYPE svg PUBLIC "-//W3C//DTD SVG 1.0//EN"    "http://www.w3.org/TR/2001/REC-SVG-20010904/DTD/svg10.dtd" [
	<!ENTITY ns_flows "http://ns.adobe.com/Flows/1.0/">
	<!ENTITY ns_svg "http://www.w3.org/2000/svg">
	<!ENTITY ns_xlink "http://www.w3.org/1999/xlink">
]>
<svg  xmlns="&ns_svg;" xmlns:xlink="&ns_xlink;" xmlns:a="http://ns.adobe.com/AdobeSVGViewerExtensions/3.0/"
	 width="487" height="487" viewBox="-0.436 -0.212 487 487" xml:space="preserve">
	<defs>
	</defs>
	<g>
		<path fill="#FFFFFF" d="M242.898,0c133.784,0,242.897,109.113,242.897,242.898c0,133.784-109.113,242.897-242.897,242.897
			C109.113,485.796,0,376.683,0,242.898C0,109.113,109.113,0,242.898,0L242.898,0z"/>
		<path fill="#AF120B" d="M341.151,81.396c12.018,7.347,23.153,16.004,33.22,25.757l0,0H347.99L341.151,81.396L341.151,81.396z"/>
		<path fill="#AF120B" d="M381.651,114.603c31.239,33.755,50.38,78.855,50.38,128.289c0,11.547-1.049,22.854-3.045,33.841l0,0
			l-30.121,19.606l-53.747-22.146l-30.598-117.378l28.096-42.213H381.651L381.651,114.603z"/>
		<path fill="#AF120B" d="M426.625,287.764c-4.016,16.393-10.174,31.959-18.164,46.381l0,0l-4.755-31.407L426.625,287.764
			L426.625,287.764z"/>
		<path fill="#AF120B" d="M402.2,344.648c-28.444,44.332-74.874,76.103-128.847,84.902l0,0l-28.951-24.447v-62.502l98.777-57.09
			l53.747,24.115L402.2,344.648L402.2,344.648z"/>
		<path fill="#AF120B" d="M263.449,430.899c-6.752,0.737-13.605,1.125-20.548,1.125c-10.531,0-20.861-0.884-30.931-2.552l0,0
			l28.073-18.463L263.449,430.899L263.449,430.899z"/>
		<path fill="#AF120B" d="M198.204,426.657c-52.353-12.765-96.292-47.417-121.497-93.646l0,0l11.78-36.181l55.199-19.687
			l89.579,62.994l-0.483,63.982L198.204,426.657L198.204,426.657z"/>
		<path fill="#AF120B" d="M70.94,321.499c-7.806-16.981-13.175-35.304-15.638-54.511l0,0l26.405,24.921L70.94,321.499L70.94,321.499
			z"/>
		<path fill="#AF120B" d="M54.005,252.285c-0.155-3.113-0.235-6.243-0.235-9.394c0-54.858,23.568-104.381,61.091-138.982l0,0h38.511
			l27.599,47.738l-38.736,114.179l-54.717,17.717L54.005,252.285L54.005,252.285z"/>
		<path fill="#AF120B" d="M123.961,96.035c12.94-10.505,27.286-19.337,42.703-26.171l0,0l-9.903,26.171H123.961L123.961,96.035z"/>
		<path fill="#AF120B" d="M242.901,53.76c30.422,0,59.198,7.256,84.706,20.11l0,0l8.844,34.666l-25.423,38.241H191.042
			l-28.472-45.476l12.849-35.055l0,0C196.396,58.19,219.146,53.76,242.901,53.76L242.901,53.76z"/>
		<path fill="#AF120B" d="M241.497,331.283l-90.547-63.98l38.737-112.21h116.694l29.535,121.562L241.497,331.283L241.497,331.283z"
			/>
		<path d="M37.078,230.206l-0.724,8.278L0.655,235.36l1.493-17.073l5.433,0.475l-0.77,8.795l8.019,0.702l0.77-8.796l5.173,0.453
			l-0.769,8.795L37.078,230.206L37.078,230.206z M39.826,202.58l-2.422,17.229l-35.485-4.987l2.385-16.972l5.399,0.758l-1.228,8.743
			l7.714,1.085l1.229-8.744l5.4,0.759l-1.229,8.743l11.572,1.627l1.265-9.001L39.826,202.58L39.826,202.58z M43.136,190.423
			l-3.079,10.733l-34.446-9.877l3.077-10.733l0,0c0.859-2.996,1.931-4.849,3.359-6.061c0.713-0.606,1.606-0.89,2.248-1.246
			c0.57-0.106,1.143-0.214,1.962-0.248c1.392-0.142,2.96,0.039,4.209,0.396l0,0l16.224,4.653l0,0
			c3.995,1.145,6.417,4.001,6.806,7.354C43.746,187.356,43.565,188.925,43.136,190.423L43.136,190.423z M13.324,183.225
			l-0.358,1.249l24.461,7.014l0.358-1.248l0,0c0.215-0.748,0.18-1.568-0.176-2.211c-0.606-0.715-1.532-1.25-3.03-1.68l0,0
			l-16.725-4.796l0,0C15.108,180.766,13.825,181.479,13.324,183.225L13.324,183.225z M52.83,162.339l-6.518,16.131l-33.226-13.424
			l6.42-15.891l5.055,2.042l-3.307,8.187l7.223,2.919l3.309-8.187l5.056,2.043l-3.308,8.186l10.835,4.377l3.404-8.427L52.83,162.339
			L52.83,162.339z M56.863,154.013l-3.901,7.336l-31.64-16.823l5.364-10.089l0,0c3.169-5.961,7.032-7.143,11.847-4.582
			c2.293,1.22,3.884,2.653,4.421,4.409c0.429,1.405,0.385,3.146-0.359,5.102l0,0l0.229,0.122l0,0
			c2.072-3.897,4.881-4.756,8.78-2.684l0,0l6.419,3.414l0,0c2.293,1.218,3.791,1.722,5.424,1.414l0,0l-4.144,7.795l0,0
			c-1.162-0.028-2.889-0.653-4.951-1.75l0,0l-4.816-2.561l0,0c-1.605-0.853-2.643-1.111-3.454-1.248
			c-0.688-0.366-1.39-0.15-1.864,0.186c-0.473,0.337-0.946,0.674-1.311,1.361l0,0l-0.488,0.917L56.863,154.013L56.863,154.013z
			 M29.579,139.505l8.254,4.389l0.609-1.146l0,0c1.097-2.064-0.035-3.254-3.016-4.839c-2.98-1.585-4.385-1.155-5.117,0.22l0,0
			L29.579,139.505L29.579,139.505z M60.069,128.847l6.697,5.897l-3.819,5.88l-26.801-24.526l6.223-9.582l32.6,15.597l-4.525,6.969
			l-7.83-4.155L60.069,128.847L60.069,128.847z M55.702,125.082l1.839-2.831l-13.992-7.538L55.702,125.082L55.702,125.082z
			 M67.879,87.398l3.431,2.778l-5.393,6.659l-3.229-2.615l0,0c-1.01-0.817-1.816-1.471-2.182-1.433
			c-0.768-0.289-1.46,0.155-1.951,0.759c-0.817,1.01-0.702,2.104,1.114,3.575l0,0l15.741,12.746l0,0
			c1.413,1.145,2.509,1.029,3.489-0.182c0.653-0.806,0.538-1.902-0.874-3.047l0,0l-5.045-4.084l5.393-6.66l4.036,3.269l0,0
			c5.044,4.085,5.217,9.236,0.968,14.483c-2.288,2.827-4.893,4.392-7.651,4.497c-2.191,0.231-4.7-0.799-7.727-3.249l0,0
			l-12.31-9.969l0,0c-2.825-2.288-4.391-4.893-4.622-7.084c0.048-1.297,0.135-2.229,0.386-3.363
			c0.576-1.538,1.519-3.114,2.989-4.931c3.269-4.036,6.114-5.073,9.151-4.284C65.092,85.476,66.466,86.255,67.879,87.398
			L67.879,87.398z M97.113,96.972l-5.772,5.977L65.563,78.057l5.773-5.978L97.113,96.972L97.113,96.972z M97.393,61.845
			l11.017,13.128l0,0c2.336,2.785,3.512,6.206,2.293,9.601c-0.693,1.6-1.95,3.332-3.939,5.001c-2.984,2.504-6.007,3.345-8.734,2.922
			c-1.098-0.096-2.164-0.558-3.197-1.385c-0.865-0.629-1.533-1.426-2.368-2.42l0,0l-11.35-13.526l0,0
			c-1.335-1.591-2.138-2.952-2.575-4.28c-0.976-3.589,0.243-6.984,4.022-10.155c3.978-3.338,7.167-3.981,10.196-2.794
			C94.188,58.431,95.723,59.855,97.393,61.845L97.393,61.845z M86.143,68.233l13.521,16.112l0,0c1.168,1.393,2.266,1.489,3.26,0.653
			c1.195-1,1.291-2.098-0.046-3.689l0,0L89.859,65.794l0,0c-1.503-1.791-2.433-1.688-3.428-0.854
			C85.238,65.941,84.975,66.84,86.143,68.233L86.143,68.233z M115.744,80.024L95.19,50.671l9.359-6.554l19.361,18.144
			l-14.895-21.272l5.531-3.873l20.554,29.354l-8.935,6.255l-22.232-20.887l17.128,24.462L115.744,80.024L115.744,80.024z
			 M154.888,26.151l1.796,4.033l-7.829,3.485l-1.689-3.795l0,0c-0.528-1.188-0.95-2.136-1.293-2.268
			c-0.554-0.605-1.371-0.525-2.083-0.209c-1.187,0.529-1.582,1.557-0.631,3.691l0,0l8.238,18.504l0,0
			c0.74,1.661,1.769,2.055,3.191,1.421c0.949-0.422,1.344-1.451,0.604-3.111l0,0l-2.641-5.93l7.83-3.486l2.111,4.746l0,0
			c2.642,5.93,0.455,10.598-5.713,13.344c-3.321,1.479-6.352,1.692-8.857,0.534c-2.058-0.79-3.825-2.846-5.41-6.404l0,0
			l-6.442-14.47l0,0c-1.479-3.322-1.691-6.354-0.901-8.41c0.631-1.135,1.132-1.926,1.87-2.822c1.212-1.108,2.767-2.085,4.902-3.035
			c4.745-2.112,7.75-1.746,10.099,0.336C153.277,23.173,154.148,24.492,154.888,26.151L154.888,26.151z M179.602,18.918
			l5.296,16.299l0,0c1.123,3.458,0.932,7.069-1.47,9.762c-1.242,1.222-3.056,2.358-5.526,3.161
			c-3.705,1.202-6.822,0.851-9.193-0.564c-0.981-0.499-1.796-1.326-2.444-2.48c-0.569-0.908-0.89-1.896-1.291-3.13l0,0
			l-5.457-16.794l0,0c-0.642-1.975-0.876-3.537-0.783-4.932c0.439-3.693,2.84-6.384,7.532-7.91c4.939-1.604,8.138-1.005,10.502,1.23
			C177.909,14.552,178.799,16.447,179.602,18.918L179.602,18.918z M166.778,20.627l6.499,20.004l0,0
			c0.563,1.729,1.544,2.228,2.779,1.828c1.481-0.481,1.981-1.463,1.339-3.439l0,0l-6.258-19.263l0,0
			c-0.722-2.223-1.624-2.476-2.859-2.076C166.797,18.163,166.216,18.898,166.778,20.627L166.778,20.627z M206.733,39.524
			l-16.952,3.914L181.72,8.521l8.097-1.869l6.834,29.602l8.854-2.044L206.733,39.524L206.733,39.524z M225.898,10.347l2.088,17.011
			l0,0c0.443,3.608-0.435,7.117-3.306,9.301c-1.45,0.963-3.449,1.731-6.026,2.048c-3.867,0.476-6.86-0.465-8.917-2.306
			c-0.868-0.679-1.511-1.646-1.927-2.903c-0.383-0.999-0.51-2.03-0.669-3.318l0,0l-2.151-17.527l0,0
			c-0.254-2.062-0.185-3.639,0.172-4.992c1.135-3.541,4.006-5.724,8.903-6.325c5.155-0.633,8.18,0.565,10.074,3.21
			C225.07,5.739,225.581,7.77,225.898,10.347L225.898,10.347z M212.984,9.579l2.563,20.877l0,0c0.222,1.803,1.09,2.482,2.379,2.324
			c1.545-0.19,2.225-1.058,1.971-3.12l0,0l-2.467-20.104l0,0c-0.286-2.32-1.122-2.74-2.411-2.583
			C213.473,7.164,212.762,7.774,212.984,9.579L212.984,9.579z M231.543,36.058l0.626-35.83l12.202,0.212l2.667,25.76l4.603-25.631
			l11.944,0.208l-0.627,35.83l-7.269-0.127l0.535-30.637l-5.987,30.542l-7.271-0.126l-4.397-30.724l-0.535,30.638L231.543,36.058
			L231.543,36.058z M275.843,39.123l-10.997-1.939l6.225-35.29l10.995,1.938l0,0c5.115,0.902,7.447,2.632,8.32,5.159
			c0.331,1.113,0.571,2.738,0.211,4.784c-0.991,5.625-3.398,7.311-7.324,7.146l0,0l-0.091,0.511l1.022,0.181l0,0
			c1.535,0.271,3.146,1.609,3.551,3.79c0.331,1.113,0.362,2.438,0.047,4.228c-0.405,2.301-0.978,4.046-1.459,5.28
			c-0.571,1.745-1.91,3.354-3.069,3.941C281.86,39.393,279.68,39.8,275.843,39.123L275.843,39.123z M279.93,8.466l-1.532-0.271
			l-1.669,9.461l1.277,0.226l0,0c1.791,0.315,2.648-0.062,3.129-1.294c0.346-0.467,0.572-1.745,0.843-3.28
			C282.563,9.984,282.232,8.872,279.93,8.466L279.93,8.466z M277.917,22.877l-2.045-0.361l-1.939,10.996l1.278,0.225l0,0
			c0.512,0.091,1.023,0.182,1.324-0.029c0.813-0.121,1.414-0.542,1.85-1.521c0.393-0.722,0.57-1.744,0.887-3.534
			c0.632-3.58,0.51-4.393,0.09-4.994C278.895,23.313,278.428,22.967,277.917,22.877L277.917,22.877z M296.002,43.191l-8.096-1.869
			l8.061-34.917l8.096,1.869L296.002,43.191L296.002,43.191z M308.275,37.944l-3.963,7.996l-6.668-2.167l16.754-32.235l10.867,3.53
			l-6.629,35.526l-7.902-2.568l1.986-8.637L308.275,37.944L308.275,37.944z M310.781,32.752l3.212,1.044l3.659-15.466
			L310.781,32.752L310.781,32.752z M319.665,51.503l14.575-32.737l10.438,4.647L339.1,49.354l10.561-23.723l6.169,2.747
			l-14.577,32.735l-9.962-4.436l6.452-29.815l-12.146,27.281L319.665,51.503L319.665,51.503z M354.289,58.98l-5.779,6.799
			l-5.946-3.715l24.054-27.225l9.69,6.056l-15.026,32.866l-7.046-4.403l4.017-7.9L354.289,58.98L354.289,58.98z M357.979,54.549
			l2.861,1.789l7.293-14.121L357.979,54.549L357.979,54.549z M380.415,88.822l-8.555-7.178l23.034-27.451l8.555,7.177l0,0
			c2.387,2.003,3.645,3.736,4.17,5.534c0.264,0.898,0.16,1.829,0.225,2.561c-0.135,0.564-0.27,1.128-0.572,1.892
			c-0.437,1.329-1.239,2.688-2.072,3.683l0,0l-10.851,12.931l0,0c-2.671,3.182-6.265,4.234-9.486,3.226
			C382.969,90.625,381.607,89.823,380.415,88.822L380.415,88.822z M399.117,64.514l-0.995-0.834l-16.358,19.494l0.995,0.835l0,0
			c0.597,0.501,1.359,0.802,2.092,0.738c0.899-0.262,1.765-0.891,2.767-2.085l0,0l11.184-13.327l0,0
			C400.637,67.146,400.508,65.683,399.117,64.514L399.117,64.514z M401.133,109.892l-12.086-12.516l25.777-24.893l11.904,12.328
			l-3.921,3.788l-6.134-6.351l-5.604,5.411l6.133,6.351l-3.923,3.789l-6.132-6.352l-8.406,8.118l6.313,6.538L401.133,109.892
			L401.133,109.892z M413.568,126.913l-4.883-6.723l28.99-21.063l10.074,13.865l-4.412,3.207l-5.19-7.144l-6.511,4.731l5.188,7.144
			l-4.201,3.053l-5.189-7.144L413.568,126.913L413.568,126.913z M427.788,131.301l23.388-12.435l3.9,7.336l-24.303,12.924l0,0
			c-2.522,1.34-2.616,2.272-2.006,3.419c0.731,1.375,1.786,1.698,4.307,0.356l0,0l24.075-12.8l3.901,7.336l-23.156,12.313l0,0
			c-4.816,2.561-7.84,2.403-10.68,0.384c-1.067-0.902-2.502-2.493-3.599-4.556c-2.438-4.587-2.067-8.313-0.384-10.678
			C424.242,133.48,425.726,132.398,427.788,131.301L427.788,131.301z M461.021,149.836l-2.238-5.538l5.057-2.042l7.49,18.539
			l-5.057,2.042l-2.14-5.296l-28.169,11.381l-3.113-7.705L461.021,149.836L461.021,149.836z M441.528,186.876l-3.079-10.733
			l34.447-9.877L475.975,177l0,0c1.431,4.992,0.898,7.846-0.989,9.738c-0.855,0.785-2.21,1.714-4.207,2.287
			c-5.491,1.575-8.062,0.15-9.634-3.45l0,0l-0.5,0.143l0.285,0.999l0,0c0.432,1.498-0.066,3.531-1.848,4.852
			c-0.855,0.787-2.033,1.394-3.779,1.895c-2.248,0.644-4.066,0.896-5.385,1.004c-1.82,0.251-3.854-0.247-4.889-1.03
			C443.922,192.403,442.602,190.621,441.528,186.876L441.528,186.876z M470.873,177.111l-0.429-1.498l-9.235,2.649l0.358,1.248l0,0
			c0.501,1.747,1.214,2.353,2.534,2.245c0.57,0.106,1.818-0.252,3.316-0.681C470.662,180.143,471.518,179.358,470.873,177.111
			L470.873,177.111z M457.038,181.618l-0.571-1.997l-10.734,3.078l0.359,1.248l0,0c0.142,0.5,0.285,0.999,0.605,1.176
			c0.465,0.677,1.106,1.034,2.178,0.997c0.82,0.035,1.818-0.251,3.564-0.752c3.496-1.002,4.172-1.467,4.528-2.109
			C457.076,182.689,457.182,182.117,457.038,181.618L457.038,181.618z M474.342,214.272l-16.822,3.271l0,0
			c-3.568,0.694-7.131,0.063-9.51-2.649c-1.062-1.38-1.967-3.321-2.463-5.869c-0.743-3.824-0.014-6.875,1.678-9.057
			c0.617-0.914,1.537-1.62,2.762-2.124c0.971-0.453,1.99-0.651,3.266-0.898l0,0l17.333-3.37l0,0
			c2.039-0.396,3.618-0.438,4.992-0.176c3.61,0.885,5.989,3.598,6.931,8.44c0.991,5.098,0.007,8.199-2.5,10.273
			C478.882,213.127,476.893,213.778,474.342,214.272L474.342,214.272z M474.209,201.337l-20.646,4.013l0,0
			c-1.785,0.347-2.401,1.26-2.152,2.535c0.297,1.529,1.21,2.146,3.249,1.749l0,0l19.882-3.865l0,0
			c2.296-0.446,2.656-1.31,2.408-2.583C476.652,201.656,475.994,200.991,474.209,201.337L474.209,201.337z M449.598,238.945
			l-1.518-17.332l35.7-3.123l0.724,8.278l-30.266,2.647l0.791,9.055L449.598,238.945L449.598,238.945z"/>
		<path fill="#F5DB14" d="M0.115,250.056h36.409l0,0c3.72,108.208,91.36,195.721,199.62,199.23l0,0v36.411l0,0
			C107.841,482.164,3.858,378.307,0.115,250.056L0.115,250.056z"/>
		<path fill="#160A67" d="M236.144,485.696v-36.41l0,0c2.244,0.073,4.992,0.112,7.253,0.112c55.32,0,105.827-22.984,142.946-58.182
			l0,0l0,0l0,0c-0.131,0.125,0.131-0.125,0,0l0,0l25.12,26.281l0,0c-43.735,42.242-103.201,68.298-168.565,68.298
			C240.639,485.796,238.389,485.76,236.144,485.696L236.144,485.696z"/>
		<path fill="#AF120B" d="M411.464,417.496l-25.12-26.279l0,0c37.246-36.038,61.027-85.9,62.928-141.161l0,0h36.412l0,0
			C483.768,315.633,455.645,374.825,411.464,417.496L411.464,417.496z"/>
	</g>
</svg>
