<?xml version="1.0" encoding="UTF-8"?>
<!-- Generator: Adobe Illustrator 11.0, SVG Export Plug-In  -->
<!DOCTYPE svg PUBLIC "-//W3C//DTD SVG 1.0//EN" "http://www.w3.org/TR/2001/REC-SVG-20010904/DTD/svg10.dtd">
<svg xmlns="http://www.w3.org/2000/svg" xmlns:xlink="http://www.w3.org/1999/xlink" xmlns:a="http://ns.adobe.com/AdobeSVGViewerExtensions/3.0/" width="384" height="613" viewBox="-0.866 -0.088 384 613" xml:space="preserve">
	<defs>
	</defs>
	<g>
		<path fill="#0C479D" d="M379.279,154.677l-0.257-2.907h-19.379c1.47-9.527,2.494-16.164,2.494-16.164    c0.195-1.276,0.291-2.546,0.291-3.804c0-11.011-7.346-20.924-18.266-23.912l-66.788-18.278c0.037-1.073,0.161-2.125,0.161-3.208    C277.536,38.684,238.851,0,191.138,0c-47.725,0-86.407,38.684-86.407,86.403c0,1.083,0.123,2.133,0.162,3.207l-66.788,18.28    c-10.919,2.988-18.266,12.901-18.266,23.912c0,1.258,0.096,2.528,0.291,3.804c0,0,1.023,6.636,2.495,16.164H3.246l-0.257,2.907    C1.006,177.122,0,192.661,0,215.3c0,87.341,18.222,169.688,52.697,238.141c31.904,63.348,75.492,114.115,133.253,155.208    l5.184,3.69l5.184-3.69c57.762-41.093,101.349-91.86,133.253-155.208c34.473-68.452,52.697-150.8,52.697-238.141    C382.268,192.628,381.263,177.097,379.279,154.677z"/>
		<path fill="#FFE812" d="M374.784,156.389h-20.536c1.901-12.308,3.316-21.488,3.316-21.488c0.162-1.038,0.241-2.071,0.241-3.094    c0-8.958-5.981-17.025-14.863-19.455l-70.369-19.258c0.182-2.214,0.34-4.433,0.34-6.69c0-45.094-36.686-81.781-81.779-81.781    s-81.779,36.688-81.779,81.781c0,2.258,0.158,4.479,0.338,6.69l-70.368,19.258c-8.882,2.43-14.863,10.497-14.863,19.455    c0,1.023,0.079,2.057,0.241,3.094c0,0,1.415,9.181,3.314,21.488H7.481c-1.888,21.574-2.862,36.914-2.862,58.911    c0,86.623,18.052,168.252,52.204,236.062c31.557,62.658,74.669,112.874,131.804,153.522c0,0,1.258,0.893,2.507,1.785    c1.254-0.893,2.507-1.785,2.507-1.785c57.134-40.648,100.249-90.864,131.804-153.522c34.149-67.813,52.204-149.443,52.204-236.062    C377.648,193.244,376.677,177.915,374.784,156.389z"/>
		<path fill="#0C479D" d="M111.903,86.403c0-43.689,35.544-79.233,79.231-79.233c43.688,0,79.23,35.544,79.23,79.233    c0,43.687-35.543,79.231-79.23,79.231C147.447,165.634,111.903,130.09,111.903,86.403z"/>
		<path fill="#0C479D" d="M365.856,215.3c0-17.76-0.664-31.199-1.926-47.122c-21.822,0-318.751,0-345.594,0    c-1.26,15.958-1.928,29.403-1.928,47.122c0,5.373,0.073,10.725,0.213,16.054h349.02    C365.782,226.024,365.856,220.672,365.856,215.3z"/>
		<path fill="#0C479D" d="M227.545,562.218c35.885-32.883,64.726-71.195,87.37-116.156c10.824-21.491,19.959-44.442,27.405-68.511    c-49.701,0-110.334,0-114.775,0C227.545,382.71,227.545,491.271,227.545,562.218z"/>
		<path fill="#0C479D" d="M39.947,377.551c7.444,24.068,16.581,47.02,27.405,68.511c22.645,44.961,51.488,83.273,87.37,116.156    c0-71.594,0-179.541,0-184.667C150.286,377.551,89.648,377.551,39.947,377.551z"/>
		<path fill="#0C479D" d="M154.723,241.331H17.015c1.068,24.775,3.667,49.028,7.74,72.549c51.561,0,125.066,0,129.968,0V241.331z"/>
		<path fill="#0C479D" d="M227.545,313.88c4.906,0,78.405,0,129.966,0c4.075-23.521,6.674-47.773,7.74-72.549H227.545V313.88z"/>
		<path fill="#FFE812" d="M99.985,209.752h11.721c0.052,4.063,1.687,4.379,5.066,4.379h14.36c2.479,0,5.016-0.264,5.016-3.221    c0-3.323-1.372-3.534-16.469-3.534c-17.635,0-19.642-2.115-19.642-11.507c0-6.917,0.633-12.248,15.417-12.248h16.365    c13.516,0,14.784,4.59,14.784,11.295v1.214h-11.718c0-2.799-0.32-3.959-5.705-3.959h-12.986c-2.64,0-4.435,0.896-4.435,2.958    c0,3.324,1.425,3.43,13.989,3.378c18.214-0.054,22.439,1.057,22.439,12.194c0,10.295-3.484,11.986-19.061,11.986h-14.199    c-10.668,0-14.941-2.007-14.941-10.295V209.752z"/>
		<path fill="#FFE812" d="M152.041,195.338h11.03l8.239,19.004l8.232-19.004h11.036l-12.935,26.923h-12.671L152.041,195.338z"/>
		<path fill="#FFE812" d="M195.118,184.043h39.91v9.185h-28.189v7.128h26.874v8.87h-26.874v13.036h-11.721V184.043z"/>
		<path fill="#FFE812" d="M242.362,184.043h39.918v9.185h-28.193v7.128h26.878v8.87h-26.878v13.036h-11.725V184.043z"/>
		<path fill="#FFE812" d="M131.684,86.403c0,32.78,26.67,59.446,59.45,59.446c32.779,0,59.45-26.667,59.45-59.446    c0-32.782-26.671-59.45-59.45-59.45C158.354,26.953,131.684,53.621,131.684,86.403z"/>
		<path fill="#0C479D" d="M134.232,86.403c0-31.375,25.525-56.902,56.902-56.902s56.902,25.527,56.902,56.902    c0,31.373-25.525,56.898-56.902,56.898S134.232,117.776,134.232,86.403z"/>
		<path fill="#FE000C" d="M312.528,156.391c5.388-9.324,9.737-19.316,12.879-29.837l-13.779-3.771    c-3.648,12.061-9.048,23.367-15.921,33.608H312.528z"/>
		<path fill="#FE000C" d="M86.571,156.391c-6.877-10.241-12.279-21.547-15.929-33.608l-13.781,3.771    c3.142,10.521,7.491,20.514,12.879,29.837H86.571z"/>
		<path fill="#FE000C" d="M115.445,156.391c-10.354-11.192-18.262-24.674-22.862-39.614l-13.742,3.763    c3.976,13.053,10.16,25.153,18.133,35.851H115.445z"/>
		<path fill="#FE000C" d="M44.16,130.03c-0.817,0.224-1.365,0.967-1.365,1.791c0,0.095,0.004,0.191,0.021,0.286    c0,0,1.627,10.546,3.746,24.284H59.99c-4.661-8.714-8.462-17.951-11.329-27.594L44.16,130.03z"/>
		<path fill="#FE000C" d="M338.107,130.03l-4.499-1.233c-2.868,9.644-6.67,18.88-11.33,27.594h13.43    c2.117-13.738,3.744-24.284,3.744-24.284c0.017-0.095,0.021-0.191,0.021-0.286C339.473,130.997,338.925,130.254,338.107,130.03z"/>
		<path fill="#FE000C" d="M285.302,156.391c7.973-10.698,14.157-22.796,18.129-35.851l-13.746-3.763    c-4.599,14.939-12.509,28.422-22.86,39.614H285.302z"/>
		<path fill="#FE000C" d="M269.069,111.137c-6.071,19.085-19.004,35.085-35.851,45.254h21.569    c12.298-11.192,21.637-25.583,26.695-41.857L269.069,111.137z"/>
		<path fill="#FE000C" d="M113.198,111.137l-12.416,3.397c5.062,16.274,14.4,30.665,26.7,41.857h21.567    C132.205,146.223,119.27,130.223,113.198,111.137z"/>
		<path fill="#FFE812" d="M142.462,86.401c0-21.858,14.651-40.711,35.067-46.663l-0.874-3.263    c-21.671,6.275-37.53,26.23-37.53,49.925c0,4.288,0.577,8.432,1.555,12.418l3.271-0.875    C143.022,94.185,142.462,90.34,142.462,86.401z"/>
		<path fill="#FFE812" d="M198.243,57.749l6.188-21.576c-4.25-1.123-8.69-1.78-13.298-1.78c-4.287,0-8.432,0.577-12.418,1.554    l3.337,12.455L198.243,57.749z"/>
		<path fill="#FFE812" d="M228.583,75.266l12.476-3.343c-2.457-8.483-6.985-16.085-13.044-22.182l-15.623,16.179L228.583,75.266z"/>
		<path fill="#FFE812" d="M210.495,64.823L226.454,48.3c-5.649-5.236-12.423-9.27-19.964-11.598l-6.354,22.142L210.495,64.823z"/>
		<path fill="#FFE812" d="M153.689,97.536l-12.48,3.343c2.457,8.483,6.985,16.085,13.044,22.182l15.622-16.181L153.689,97.536z"/>
		<path fill="#FFE812" d="M184.024,115.051l-6.188,21.578c4.252,1.123,8.693,1.78,13.298,1.78c4.287,0,8.43-0.577,12.418-1.554    l-3.341-12.458L184.024,115.051z"/>
		<path fill="#FFE812" d="M238.319,74.858c0.922,3.758,1.49,7.604,1.49,11.542c0,21.871-14.655,40.715-35.075,46.663l0.876,3.263    c21.674-6.275,37.532-26.233,37.532-49.925c0-4.288-0.577-8.432-1.557-12.418L238.319,74.858z"/>
		<path fill="#FFE812" d="M171.772,107.977l-15.957,16.525c5.647,5.236,12.418,9.27,19.961,11.598l6.35-22.145L171.772,107.977z"/>
		<path fill="#FFE812" d="M227.454,77.064c0.788,3.032,1.291,6.137,1.291,9.336c0,1.347-0.088,2.673-0.229,3.986    c-6.089-7.711-15.543-15.607-26.891-22.159c-11.306-6.529-22.821-10.764-32.514-12.202c3.544-2.573,7.542-4.567,11.872-5.788    L227.454,77.064z"/>
		<path fill="#FFE812" d="M228.097,93.365c-1.598,8.533-6.097,16.079-12.463,21.559c-9.783-1.027-22.022-5.316-33.93-12.189    c-11.785-6.807-21.673-15.286-27.486-23.24c1.617-8.552,6.122-16.128,12.532-21.607c9.791,1.075,22.08,5.408,33.813,12.179    C212.334,76.863,222.282,85.393,228.097,93.365z"/>
		<path fill="#FFE812" d="M144.587,86.401c0-20.891,13.991-38.906,33.492-44.61l1.751,6.541    c-16.479,4.908-28.434,20.218-28.434,38.069c0,3.152,0.45,6.226,1.179,9.232l-6.577,1.762    C145.121,93.815,144.587,90.153,144.587,86.401z"/>
		<path fill="#FFE812" d="M154.747,95.696c-0.774-3.018-1.226-6.118-1.226-9.295c0-1.343,0.083-2.667,0.224-3.974    c6.078,7.697,15.518,15.574,26.896,22.146c11.269,6.504,22.918,10.785,32.622,12.229c-3.553,2.59-7.595,4.542-11.966,5.769    L154.747,95.696z"/>
		<path fill="#FFE812" d="M204.183,131.014l-1.76-6.572c16.594-4.899,28.447-20.179,28.447-38.041c0-3.154-0.453-6.226-1.18-9.23    l6.574-1.762c0.881,3.58,1.42,7.24,1.42,10.992C237.685,107.3,223.689,125.315,204.183,131.014z"/>
		<path fill="#0C479D" d="M193.923,81.586c-7.164-4.136-16.012-7.874-19.633-6.902c-0.901,0.243-1.345,0.738-1.561,1.112    c-0.214,0.369-0.421,1.002-0.181,1.903c0.967,3.619,8.631,9.411,15.796,13.549c7.159,4.136,16.008,7.875,19.627,6.904    c0.905-0.239,1.345-0.737,1.564-1.108C211.732,93.232,200.755,85.533,193.923,81.586z"/>
		<path fill="#FFE812" d="M207.179,94.733c0.071,0.11,0.117,0.197,0.171,0.292l-0.253-0.146L207.179,94.733z"/>
		<path fill="#FFE812" d="M192.86,83.427c4.495,2.598,8.521,5.433,11.339,7.985c1.005,0.913,1.656,1.627,2.175,2.255l-0.776-0.448    l-0.345,0.598l-1.1-0.637l0.345-0.598l-1.843-1.063l-0.345,0.598l-1.104-0.637l0.345-0.598l-1.839-1.063l-0.345,0.598    l-1.104-0.637l0.344-0.6l-1.843-1.063l-0.345,0.598l-1.104-0.637l0.345-0.598l-1.843-1.063l-0.345,0.598l-1.1-0.637l0.345-0.598    l-1.843-1.063l-0.344,0.598l-1.104-0.637l0.345-0.598l-1.839-1.063l-0.344,0.598l-1.104-0.637l0.345-0.598l-1.841-1.063    l-0.345,0.598l-1.106-0.639l0.347-0.598l-1.841-1.063l-0.344,0.598l-1.106-0.637l0.345-0.598l-1.841-1.063l-0.345,0.598    l-1.102-0.637l0.344-0.598l-0.805-0.465c0.803,0.137,1.801,0.37,3.09,0.785C183.897,78.764,188.365,80.833,192.86,83.427z"/>
		<path fill="#FFE812" d="M175.902,76.66l-0.091,0.157l-0.272-0.157C175.653,76.658,175.763,76.654,175.902,76.66z"/>
		<path fill="#FFE812" d="M174.572,76.855c0.056-0.068,0.311-0.17,0.836-0.195l-0.585,1.019    C174.58,77.212,174.541,76.94,174.572,76.855z"/>
		<path fill="#FFE812" d="M175.067,78.104c-0.087-0.137-0.149-0.251-0.211-0.363l0.315,0.181L175.067,78.104z"/>
		<path fill="#FFE812" d="M189.407,89.408c-4.495-2.594-8.519-5.426-11.331-7.977c-1.04-0.942-1.758-1.712-2.283-2.353l0.874,0.504    l0.345-0.598l1.104,0.637l-0.345,0.598l1.841,1.063l0.345-0.598l1.104,0.637l-0.344,0.598l1.841,1.063l0.344-0.598l1.104,0.639    l-0.344,0.598l1.841,1.063l0.344-0.598l1.104,0.637l-0.345,0.598l1.843,1.063l0.345-0.598l1.1,0.637l-0.344,0.598l1.843,1.063    l0.344-0.598l1.104,0.637l-0.345,0.598l1.839,1.063l0.345-0.598l1.104,0.637l-0.345,0.598l1.843,1.063l0.345-0.598l1.104,0.639    l-0.345,0.598l1.839,1.063l0.344-0.6l1.104,0.637l-0.345,0.6l1.843,1.063l0.345-0.598l1.1,0.635l-0.345,0.6l0.893,0.515    c-0.817-0.133-1.847-0.372-3.188-0.801C198.359,94.069,193.894,92.002,189.407,89.408z"/>
		<path fill="#FFE812" d="M206.345,96.175l0.112-0.19l0.336,0.193C206.656,96.181,206.52,96.184,206.345,96.175z"/>
		<path fill="#FFE812" d="M207.694,95.982c-0.063,0.071-0.324,0.172-0.855,0.195l0.585-1.019c0.179,0.351,0.282,0.629,0.282,0.753    C207.706,95.942,207.698,95.965,207.694,95.982z"/>
		<path fill="#FFE812" d="M198.355,158.159c-1.166-0.061-2.308,0.149-2.308,0.722c0,0.811,1.407,1.218,2.461,0.805    c0.225,0.577-0.552,1.164-1.93,1.164c-0.332,0-1.129-0.133-1.474-0.963c-0.299,0.598-0.585,1.029-1.913,1.029    c-0.639,0-1.407-0.452-1.395-1.442c0.66,0.276,1.282,0.446,1.594,0.446c0.797,0,1.727-0.398,1.727-0.93    c0-0.649-1.291-0.872-2.345-0.791c0.685-0.405,0.212-1.202-1.64-1.202c-1.851,0-2.324,0.797-1.64,1.202    c-1.054-0.081-2.345,0.141-2.345,0.791c0,0.531,0.93,0.93,1.727,0.93c0.312,0,0.934-0.17,1.594-0.446    c0.013,0.99-0.755,1.442-1.395,1.442c-1.328,0-1.614-0.432-1.913-1.029c-0.345,0.83-1.142,0.963-1.474,0.963    c-1.378,0-2.154-0.587-1.93-1.164c1.054,0.413,2.461,0.006,2.461-0.805c0-0.573-1.142-0.783-2.308-0.722    c0.627-0.689-0.635-1.366-1.785-1.123l2.054,6.479h13.904l2.054-6.479C198.99,156.793,197.729,157.47,198.355,158.159z"/>
		<path fill="#FFE812" d="M220.22,147.8c-1.166-0.061-2.308,0.149-2.308,0.722c0,0.811,1.407,1.218,2.461,0.805    c0.225,0.577-0.552,1.164-1.93,1.164c-0.332,0-1.129-0.133-1.474-0.963c-0.299,0.598-0.585,1.029-1.913,1.029    c-0.64,0-1.407-0.452-1.395-1.442c0.66,0.276,1.282,0.446,1.594,0.446c0.797,0,1.727-0.398,1.727-0.93    c0-0.649-1.291-0.872-2.345-0.791c0.685-0.405,0.211-1.202-1.64-1.202s-2.324,0.797-1.64,1.202    c-1.054-0.081-2.345,0.141-2.345,0.791c0,0.531,0.93,0.93,1.727,0.93c0.312,0,0.934-0.17,1.594-0.446    c0.013,0.99-0.755,1.442-1.395,1.442c-1.328,0-1.614-0.432-1.913-1.029c-0.345,0.83-1.142,0.963-1.474,0.963    c-1.378,0-2.154-0.587-1.93-1.164c1.054,0.413,2.461,0.006,2.461-0.805c0-0.573-1.142-0.783-2.308-0.722    c0.627-0.689-0.635-1.366-1.785-1.123l2.055,6.479h13.904l2.055-6.479C220.854,146.434,219.593,147.111,220.22,147.8z"/>
		<path fill="#FFE812" d="M176.491,147.8c-1.166-0.061-2.308,0.149-2.308,0.722c0,0.811,1.407,1.218,2.461,0.805    c0.225,0.577-0.552,1.164-1.93,1.164c-0.332,0-1.129-0.133-1.474-0.963c-0.299,0.598-0.585,1.029-1.913,1.029    c-0.639,0-1.407-0.452-1.395-1.442c0.66,0.276,1.282,0.446,1.594,0.446c0.797,0,1.727-0.398,1.727-0.93    c0-0.649-1.291-0.872-2.345-0.791c0.685-0.405,0.211-1.202-1.64-1.202s-2.324,0.797-1.64,1.202    c-1.054-0.081-2.345,0.141-2.345,0.791c0,0.531,0.93,0.93,1.727,0.93c0.312,0,0.934-0.17,1.594-0.446    c0.013,0.99-0.755,1.442-1.395,1.442c-1.328,0-1.614-0.432-1.913-1.029c-0.345,0.83-1.142,0.963-1.474,0.963    c-1.378,0-2.154-0.587-1.93-1.164c1.054,0.413,2.461,0.006,2.461-0.805c0-0.573-1.142-0.783-2.308-0.722    c0.627-0.689-0.635-1.366-1.785-1.123l2.054,6.479h13.904l2.054-6.479C177.126,146.434,175.864,147.111,176.491,147.8z"/>
		<path fill="#FFE812" d="M140.263,131.42l-1.712-2.312c0.793-0.604,0.617-0.973,0.123-1.64l-2.1-2.833    c-0.363-0.49-0.785-0.95-1.368-0.519c-0.658,0.485-0.498,0.789,1.71,3.766c2.58,3.479,2.455,4.182,0.602,5.556    c-1.364,1.013-2.509,1.666-4.669-1.25l-2.395-3.227c-1.976-2.667-1.256-3.588,0.068-4.567l0.239-0.178l1.714,2.312    c-0.552,0.409-0.734,0.641,0.052,1.704l1.898,2.561c0.386,0.521,0.826,0.745,1.233,0.444c0.656-0.487,0.469-0.784-1.38-3.254    c-2.673-3.586-3.071-4.58-0.875-6.209c2.032-1.504,2.874-1.064,5.151,2.007l2.077,2.802c1.559,2.102,1.789,3.239,0.153,4.451    L140.263,131.42z"/>
		<path fill="#FFE812" d="M126.861,123.694l-1.326-2.857l4.784-6.263l-7.872-0.392l-1.326-2.857l10.635,0.625l1.496,3.223    L126.861,123.694z"/>
		<path fill="#FFE812" d="M120.467,108.956l-2.434-9.973l2.116-0.517l1.752,7.178l1.461-0.357l-1.66-6.8l1.888-0.46l1.66,6.8    l1.461-0.357l-1.791-7.342l2.189-0.533l2.474,10.137L120.467,108.956z"/>
		<path fill="#FFE812" d="M117.448,95.654l-0.17-4.456l6.605-5.663v-0.025l-6.813,0.261l-0.11-2.876l9.378-0.359l0.17,4.455    l-6.605,5.663v0.025l6.813-0.262l0.11,2.876L117.448,95.654z"/>
		<path fill="#FFE812" d="M123.445,80.65l0.487-2.837c0.986,0.158,1.131-0.226,1.272-1.043l0.6-3.474    c0.104-0.6,0.145-1.224-0.571-1.347c-0.803-0.139-0.913,0.183-1.542,3.837c-0.737,4.267-1.33,4.663-3.604,4.271    c-1.672-0.289-2.937-0.664-2.32-4.24l0.683-3.961c0.564-3.269,1.729-3.385,3.352-3.104l0.292,0.05l-0.49,2.836    c-0.677-0.116-0.971-0.089-1.195,1.214l-0.542,3.142c-0.11,0.639,0.031,1.11,0.529,1.198c0.805,0.139,0.891-0.202,1.403-3.244    c0.747-4.41,1.191-5.385,3.887-4.92c2.49,0.43,2.753,1.343,2.104,5.111l-0.593,3.437c-0.444,2.579-1.108,3.53-3.115,3.186    L123.445,80.65z"/>
		<path fill="#FFE812" d="M120.131,64.765l1.05-2.679l3.21,1.257l0.492-1.255l-1.886-4.636l1.428-3.645l2.419,6.404l6.537-3.536    l-1.485,3.789l-4.869,2.549l-0.463,1.183l3.354,1.313l-1.05,2.679L120.131,64.765z"/>
		<path fill="#FFE812" d="M128.166,47.489l2.055-3.133l10.677,0.83l-1.756,2.677l-1.878-0.162l-3.196,4.878l0.926,1.615    l-1.762,2.689L128.166,47.489z M132.966,50.573l2.018-3.08l-3.972-0.372L132.966,50.573z"/>
		<path fill="#FFE812" d="M139.665,33.035l7.477-6.335l1.457,1.722l-5.279,4.474l1.131,1.334l5.032-4.265l1.409,1.66l-5.034,4.267    l2.071,2.442l-2.196,1.862L139.665,33.035z"/>
		<path fill="#FFE812" d="M151.107,27.766c-1.338-2.399-0.307-3.716,1.957-4.98l4.03-2.25c2.264-1.262,3.926-1.448,5.265,0.953    l1.363,2.445c1.34,2.398,0.309,3.716-1.955,4.98l-4.03,2.247c-2.264,1.264-3.926,1.451-5.267-0.95L151.107,27.766z M154.617,27.99    c0.664,1.189,1.164,1.502,2.353,0.838l3.215-1.793c1.189-0.664,1.185-1.255,0.522-2.442l-0.494-0.884    c-0.569-1.019-1.164-1.502-2.488-0.764l-2.942,1.642c-1.326,0.741-1.227,1.502-0.658,2.52L154.617,27.99z"/>
		<path fill="#FFE812" d="M163.044,17.716l10.43-3.389l0.72,2.219l-3.845,1.251l2.177,6.705l-2.735,0.89l-2.179-6.707l-3.847,1.25    L163.044,17.716z"/>
		<path fill="#FFE812" d="M176.058,13.713l8.22-1.023c2.276-0.282,3.461,0.197,3.689,2.025c0.195,1.594-0.344,1.976-1.112,2.306    l0.004,0.04c1.266-0.002,1.814,0.61,1.988,2.011c0.253,2.046-0.9,2.621-2.536,2.824l-9.093,1.131L176.058,13.713z M179.374,17.05    l5.055-0.629c0.527-0.066,0.812-0.296,0.747-0.824c-0.068-0.542-0.4-0.695-0.928-0.628l-5.055,0.626L179.374,17.05z     M179.793,20.433l5.122-0.637c0.616-0.077,1.01-0.268,0.944-0.809c-0.079-0.631-0.508-0.72-1.126-0.644l-5.12,0.637    L179.793,20.433z"/>
		<path fill="#FFE812" d="M190.831,15.417c0.236-2.737,1.83-3.252,4.412-3.03l4.598,0.395c2.582,0.222,4.063,1,3.827,3.737    l-0.236,2.791c-0.237,2.737-1.831,3.25-4.412,3.03l-4.599-0.396c-2.582-0.222-4.063-0.998-3.827-3.737L190.831,15.417z     M193.616,17.569c-0.117,1.355,0.12,1.896,1.477,2.013l3.67,0.315c1.353,0.116,1.685-0.375,1.801-1.733l0.087-1.006    c0.1-1.162-0.124-1.896-1.635-2.027l-3.358-0.289c-1.51-0.128-1.854,0.556-1.959,1.718L193.616,17.569z"/>
		<path fill="#FFE812" d="M206.979,13.989l2.773,0.776l-1.881,6.715l6.226,1.743l-0.647,2.322l-9.002-2.521L206.979,13.989z"/>
		<path fill="#FFE812" d="M218.24,17.403l2.614,1.208l-2.93,6.332l5.873,2.714l-1.014,2.188l-8.482-3.922L218.24,17.403z"/>
		<path fill="#FFE812" d="M228.865,22.563l8.089,5.528l-1.27,1.864l-5.716-3.906l-0.987,1.444l5.445,3.723l-1.229,1.797    l-5.445-3.721l-1.806,2.644l-2.378-1.623L228.865,22.563z"/>
		<path fill="#FFE812" d="M236.979,32.203c1.959-1.928,3.502-1.285,5.32,0.563l3.241,3.289c1.818,1.847,2.437,3.399,0.481,5.329    l-1.996,1.963c-1.959,1.93-3.503,1.285-5.32-0.563l-3.238-3.287c-1.821-1.847-2.439-3.401-0.48-5.329L236.979,32.203z     M237.697,35.646c-0.972,0.955-1.142,1.523-0.183,2.493l2.581,2.623c0.955,0.969,1.523,0.809,2.495-0.147l0.718-0.709    c0.834-0.818,1.142-1.521,0.074-2.603l-2.361-2.401c-1.066-1.079-1.772-0.783-2.606,0.035L237.697,35.646z M243.769,30.339    l1.748,1.772l-1.387,1.365l-1.747-1.774L243.769,30.339z M246.243,32.851l1.747,1.774l-1.387,1.363l-1.747-1.772L246.243,32.851z"/>
		<path fill="#FFE812" d="M250.331,41.647l4.689,7.309c1.199,1.866,0.594,2.961-0.826,3.872l-0.502,0.322    c-1.059,0.679-1.834,0.838-2.81-0.106l-0.021,0.015c0.332,0.803,0.398,1.606-0.896,2.438l-1.345,0.861l-1.553-2.422l0.95-0.608    c0.826-0.534,0.947-0.949,0.461-1.7l-2.44-3.808l-2.05,1.316l-1.557-2.422L250.331,41.647z M248.003,46.562l2.568,4.003    c0.42,0.653,0.834,0.726,1.403,0.363l0.261-0.168c0.697-0.448,0.606-0.882,0.117-1.646l-2.429-3.785L248.003,46.562z"/>
		<path fill="#FFE812" d="M258.108,54.372l2.968,7.734c0.821,2.142,0.64,3.405-1.079,4.065c-1.498,0.575-2,0.143-2.503-0.525    l-0.037,0.014c0.303,1.231-0.157,1.907-1.478,2.414c-1.922,0.739-2.76-0.245-3.35-1.783l-3.283-8.556L258.108,54.372z     M252.485,59.614l1.847,4.816c0.224,0.581,0.506,0.917,1.013,0.722c0.594-0.228,0.576-0.666,0.356-1.247l-1.851-4.816    L252.485,59.614z M255.664,58.392l1.826,4.756c0.19,0.496,0.485,0.718,0.979,0.527c0.511-0.195,0.581-0.556,0.391-1.052    l-1.826-4.754L255.664,58.392z"/>
		<path fill="#FFE812" d="M263.234,68.732l0.456,2.841l-5.35,0.861c-1.179,0.189-1.568,0.685-1.382,1.849l0.452,2.816    c0.188,1.165,0.719,1.513,1.893,1.324l5.35-0.861l0.457,2.841l-5.964,0.959c-2.304,0.372-3.595-0.641-4.014-3.252l-0.655-4.069    c-0.42-2.61,0.489-3.978,2.793-4.35L263.234,68.732z"/>
		<path fill="#FFE812" d="M265.363,84.303l-0.253,4.454l-7.118,5.007v0.025l6.807,0.39l-0.166,2.872l-9.367-0.535l0.253-4.452    l7.118-5.007V87.03l-6.807-0.388l0.162-2.874L265.363,84.303z"/>
		<path fill="#FFE812" d="M264.007,100.649l-2.362,8.358c-0.78,2.769-1.967,3.484-4.2,2.854l-2.743-0.776    c-2.233-0.631-2.868-1.862-2.088-4.63l2.362-8.357L264.007,100.649z M256.515,101.523l-1.391,4.914    c-0.332,1.185-0.128,1.743,1.158,2.106l1.225,0.345c1.282,0.363,1.752-0.004,2.084-1.189l1.39-4.914L256.515,101.523z"/>
		<path fill="#FFE812" d="M259.292,115.671l-4.699,9.129l-1.938-0.996l3.383-6.57l-1.337-0.687l-3.204,6.223l-1.73-0.89l3.204-6.223    l-1.337-0.689l-3.457,6.72l-2.005-1.031l4.773-9.278L259.292,115.671z"/>
		<path fill="#FFE812" d="M253.257,126.963l-6.661,8.709l-1.855-1.417l2.457-3.212l-5.599-4.283l1.747-2.287l5.599,4.285    l2.457-3.212L253.257,126.963z"/>
	</g>
</svg>